<svg width="186" height="32" viewBox="0 0 186 32" fill="none" xmlns="http://www.w3.org/2000/svg">
<path d="M20.568 7.152V24H16.464V13.896L12.696 24H9.384L5.592 13.872V24H1.488V7.152H6.336L11.064 18.816L15.744 7.152H20.568ZM33.4873 24.168C31.9033 24.168 30.4473 23.8 29.1193 23.064C27.8073 22.328 26.7593 21.304 25.9753 19.992C25.2072 18.664 24.8232 17.176 24.8232 15.528C24.8232 13.88 25.2072 12.4 25.9753 11.088C26.7593 9.776 27.8073 8.752 29.1193 8.016C30.4473 7.28 31.9033 6.912 33.4873 6.912C35.0713 6.912 36.5193 7.28 37.8313 8.016C39.1593 8.752 40.1993 9.776 40.9513 11.088C41.7193 12.4 42.1033 13.88 42.1033 15.528C42.1033 17.176 41.7193 18.664 40.9513 19.992C40.1833 21.304 39.1433 22.328 37.8313 23.064C36.5193 23.8 35.0713 24.168 33.4873 24.168ZM33.4873 20.424C34.8313 20.424 35.9033 19.976 36.7032 19.08C37.5193 18.184 37.9273 17 37.9273 15.528C37.9273 14.04 37.5193 12.856 36.7032 11.976C35.9033 11.08 34.8313 10.632 33.4873 10.632C32.1273 10.632 31.0393 11.072 30.2233 11.952C29.4233 12.832 29.0233 14.024 29.0233 15.528C29.0233 17.016 29.4233 18.208 30.2233 19.104C31.0393 19.984 32.1273 20.424 33.4873 20.424ZM56.5864 15.36C57.5624 15.568 58.3464 16.056 58.9384 16.824C59.5304 17.576 59.8264 18.44 59.8264 19.416C59.8264 20.824 59.3304 21.944 58.3384 22.776C57.3624 23.592 55.9944 24 54.2344 24H46.3864V7.152H53.9704C55.6824 7.152 57.0184 7.544 57.9784 8.328C58.9544 9.112 59.4424 10.176 59.4424 11.52C59.4424 12.512 59.1784 13.336 58.6504 13.992C58.1384 14.648 57.4504 15.104 56.5864 15.36ZM50.4904 13.968H53.1784C53.8504 13.968 54.3624 13.824 54.7144 13.536C55.0824 13.232 55.2664 12.792 55.2664 12.216C55.2664 11.64 55.0824 11.2 54.7144 10.896C54.3624 10.592 53.8504 10.44 53.1784 10.44H50.4904V13.968ZM53.5144 20.688C54.2024 20.688 54.7304 20.536 55.0984 20.232C55.4824 19.912 55.6744 19.456 55.6744 18.864C55.6744 18.272 55.4744 17.808 55.0744 17.472C54.6904 17.136 54.1544 16.968 53.4664 16.968H50.4904V20.688H53.5144ZM68.3108 7.152V24H64.2068V7.152H68.3108ZM79.3809 24.168C78.1489 24.168 77.0449 23.968 76.0689 23.568C75.0929 23.168 74.3089 22.576 73.7169 21.792C73.1409 21.008 72.8369 20.064 72.8049 18.96H77.1729C77.2369 19.584 77.4529 20.064 77.8209 20.4C78.1889 20.72 78.6689 20.88 79.2609 20.88C79.8689 20.88 80.3489 20.744 80.7009 20.472C81.0529 20.184 81.2289 19.792 81.2289 19.296C81.2289 18.88 81.0849 18.536 80.7969 18.264C80.5249 17.992 80.1809 17.768 79.7649 17.592C79.3649 17.416 78.7889 17.216 78.0369 16.992C76.9489 16.656 76.0609 16.32 75.3729 15.984C74.6849 15.648 74.0929 15.152 73.5969 14.496C73.1009 13.84 72.8529 12.984 72.8529 11.928C72.8529 10.36 73.4209 9.136 74.5569 8.256C75.6929 7.36 77.1729 6.912 78.9969 6.912C80.8529 6.912 82.3489 7.36 83.4849 8.256C84.6209 9.136 85.2289 10.368 85.3089 11.952H80.8689C80.8369 11.408 80.6369 10.984 80.2689 10.68C79.9009 10.36 79.4289 10.2 78.8529 10.2C78.3569 10.2 77.9569 10.336 77.6529 10.608C77.3489 10.864 77.1969 11.24 77.1969 11.736C77.1969 12.28 77.4529 12.704 77.9649 13.008C78.4769 13.312 79.2769 13.64 80.3649 13.992C81.4529 14.36 82.3329 14.712 83.0049 15.048C83.6929 15.384 84.2849 15.872 84.7809 16.512C85.2769 17.152 85.5249 17.976 85.5249 18.984C85.5249 19.944 85.2769 20.816 84.7809 21.6C84.3009 22.384 83.5969 23.008 82.6689 23.472C81.7409 23.936 80.6449 24.168 79.3809 24.168ZM104.643 7.152V24H100.539V17.064H94.1545V24H90.0505V7.152H94.1545V13.752H100.539V7.152H104.643ZM120.093 21.024H113.805L112.797 24H108.501L114.597 7.152H119.349L125.445 24H121.101L120.093 21.024ZM119.037 17.856L116.949 11.688L114.885 17.856H119.037ZM139.789 21.024H133.501L132.493 24H128.197L134.293 7.152H139.045L145.141 24H140.797L139.789 21.024ZM138.733 17.856L136.645 11.688L134.581 17.856H138.733ZM153.1 20.832H158.476V24H148.996V7.152H153.1V20.832ZM172.921 21.024H166.633L165.625 24H161.329L167.425 7.152H172.177L178.273 24H173.929L172.921 21.024ZM171.865 17.856L169.777 11.688L167.713 17.856H171.865Z" fill="#BC1432"/>
</svg>
